<svg
  width="200"
  height="200"
  viewBox="0 0 200 200"
  fill="none"
  xmlns="http://www.w3.org/2000/svg"
>
  <g>
    <!-- Forest Green Body of B -->
    <path
      d="M53 40C53 40 102 40 126 40C150 40 160 52 160 69C160 86 142 98 126 98H106V98C126 98 160 110 160 131C160 152 142 160 120 160C106 160 93 160 93 160C101 160 112 160 117 154C122 148 123 139 123 131C123 123 116 116 109 116C102 116 93 116 93 116V85H77V91C77 91 71 91 66 91H53V40Z"
      fill="#138A47"
    />
    
    <!-- Lime Green Book Cover & Bar Charts -->
    <path
      d="M53 100C53 100 66 100 71 100C77 100 77 97 77 91V85C77 85 91 85 91 85C91 85 91 116 91 123C91 130 91 146 101 154C111 162 120 160 148 160C148 160 139 174 126 181C113 188 101 188 101 188C101 188 89 188 77 181C65 174 53 160 53 160C53 160 53 136 53 123C53 110 53 100 53 100Z"
      fill="#B6EC15"
    />

    <!-- Lime Green Bar Chart Details (The two vertical bars inside the B cutout) -->
    <path
      d="M53 100H71V126H53V100Z"
      fill="#B6EC15"
    />
    <path
      d="M77 85H91V126H77V85Z"
      fill="#B6EC15"
    />
  </g>
</svg>
